<?xml version="1.0" encoding="utf-8"?>
<?xml-stylesheet type="text/xsl" href="rss1.xsl"?>
<rss version="2.0" xmlns:atom="http://www.w3.org/2005/Atom" xmlns:content="http://purl.org/rss/1.0/modules/content/" xmlns:dc="http://purl.org/dc/elements/1.1/" xmlns:media="http://search.yahoo.com/mrss/">
<channel>
 <title>Getty</title>
 <link>http://www.gettyimg.com/</link>
 <atom:link href="http://www.gettyimg.com/" rel="self" type="application/rss+xml" />

 
                <item>
                <title><![CDATA[【BLU-RAY &amp; BD RIP】Steven Wilson - The Harmony Codex [BDRemux 1080p | PCM 24-bit 96kHz | DTS-HD MA 5.1 | TrueHD Dolby Atmos]]]></title>
                <link><![CDATA[https://sharemania.us/threads/steven-wilson-the-harmony-codex-bdremux-1080p-pcm-24-bit-96khz-dts-hd-ma-5-1-truehd-dolby-atmos.231311/]]></link>
                <description><![CDATA[<article>
<blockquote class="messageText SelectQuoteContainer ugc baseHtml">
<b><img src="https://images2.imgbox.com/49/57/6zwN2dkJ_o.jpg" class="bbCodeImage LbImage" alt="[​IMG]" data-url="https://images2.imgbox.com/49/57/6zwN2dkJ_o.jpg" style=""> <br>
<br>
Genre: <span style="color: #0059b3">Electronic, Rock, Pop</span> <br>
Style: <span style="color: #0059b3">Prog Rock, Art Rock</span> <br>
Year: <span style="color: #0059b3">2023</span> <br>
Source: <span style="color: #0059b3">Blu-ray "The Harmony Codex"</span></b><br>
<br>
"<b>The Harmony Codex</b>" is a song by British musician and record producer Steven Wilson. It's the title track of his seventh studio album, released on 29 September 2023 through Virgin Music Group. The track is the second longest on the album at almost ten minutes. The mainly instrumental track is meant to take you on a journey. It's an atmospheric ambient song bringing to mind the dreaming state of a dystopian world, a recurrent theme in Steve Wilson's imagination. Wilson's wife Rotem Wilson provided the narration.<br>
<br>
Director and Producer Miles Skarin from Video production/VFX studio Crystal Spotlight commented on YouTube: "The video for the title track of Steven Wilson’s new album ‘The Harmony Codex’ was a project we worked on over a period of 6 months. Drawing inspiration for the concept from Steven’s short story, we started the project by building a 3D model of London, that included hundreds of buildings and landmarks. We wanted to create an alternate reality version of London, so we added a unique under/overground train system and stations that wrap around the skyscraper, which acts as the centrepiece of the video. We aimed for the video to evoke the same dream-like paranoia and feelings of the characters from Steven’s short story, so many of the visual designs in the video reflect this, as they sport a realistic yet otherworldly aesthetic. You will notice that many of the London landmarks in particular look familiar on first glance but they are not the same - this was completely intentional!"<br>
<br>
"The video notably features an extended 4 minute “one shot” sequence with the camera pulling back from outside the skyscraper through the building, with gravity depicted as being manipulated and twisted as the shot progresses. We animated a virtual camera to rotate 360 degrees whilst travelling backwards through the scene. We also made use of ray-traced reflection rendering, which allowed us to create the shot of the twisting office corridor, seemingly depicted in an infinite void. The climactic final sequence with mercury like substance pouring out and running down the building’s stairwells was created using dynamic fluid simulations. We wanted each sequence to place the viewer inside Harmony and Jamie’s lucid dream like experience inside the skyscraper, a physically impossible and infeasible space of reality. We are very proud of the end result, which we believe works as an effective visual companion to Steven’s immersive kaleidoscopic track."<br>
<br>
<b>Release Info</b><br>
Remux from the Blu-ray release of The Harmony Codex.<br>
I've removed the default PCM track (24/48) and replaced it with the audio tracks from the album section:<br>
PCM 2.0 (24-bit 96kHz), DTS-HD MA 5.1 (24-bit 96kHz) and TrueHD with Dolby Atmos (9.1.6 - 24/48).<br>
<br>
<b><span style="color: #ff0000">Note to the peeps @ RuTracker: Please give credit if you post the work of someone else!</span></b><br>
- Hurby4 aka ADHDerby<br>
<br>
<div class="ToggleTriggerAnchor bbCodeSpoilerContainer">
<button type="button" class="button bbCodeSpoilerButton ToggleTrigger Tooltip JsOnly" data-target="> .SpoilerTarget"><span>Spoiler: <span class="SpoilerTitle">Media Info</span></span></button>
<div class="SpoilerTarget bbCodeSpoilerText">
<div class="bbCodeBlock bbCodeCode">
<div class="type">Code:</div>
<pre>General
Unique ID                      : 43850015438418267334999981962291456504 (0x20FD34ADF69A8AF2C95B35E3138629F8)
Complete name                  : Steve Wilson - The Harmony Codex.mkv
Format                         : Matroska
Format version                 : Version 4 / Version 2
File size                      : 2.94 GiB
Duration                       : 9 min 50 s
Overall bit rate mode          : Variable
Overall bit rate               : 42.7 Mb/s
Frame rate                     : 24.000 FPS
Movie name                     : Steve Wilson - The Harmony Codex
Encoded date                   : 2023-10-29 13:07:00 UTC
Writing application            : mkvmerge v79.0 ('Funeral Pyres') 64-bit
Writing library                : libebml v1.4.4 + libmatroska v1.7.1

Video
ID                             : 1
ID in the original source medi : 4113 (0x1011)
Format                         : AVC
Format/Info                    : Advanced Video Codec
Format profile                 : High@L4.1
Format settings                : CABAC / 4 Ref Frames
Format settings, CABAC         : Yes
Format settings, Reference fra : 4 frames
Codec ID                       : V_MPEG4/ISO/AVC
Duration                       : 9 min 50 s
Bit rate mode                  : Variable
Bit rate                       : 27.2 Mb/s
Maximum bit rate               : 32.0 Mb/s
Width                          : 1 920 pixels
Height                         : 1 080 pixels
Display aspect ratio           : 16:9
Frame rate mode                : Constant
Frame rate                     : 24.000 FPS
Color space                    : YUV
Chroma subsampling             : 4:2:0
Bit depth                      : 8 bits
Scan type                      : Progressive
Bits/(Pixel*Frame)             : 0.546
Time code of first frame       : 01:00:02:0000000023
Stream size                    : 1.87 GiB (64%)
Default                        : Yes
Forced                         : No
Original source medium         : Blu-ray

Audio #1
ID                             : 2
ID in the original source medi : 4352 (0x1100)
Format                         : MLP FBA 16-ch
Format/Info                    : Meridian Lossless Packing FBA with 16-channel presentation
Commercial name                : Dolby TrueHD with Dolby Atmos
Codec ID                       : A_TRUEHD
Duration                       : 9 min 50 s
Bit rate mode                  : Variable
Bit rate                       : 5 692 kb/s
Maximum bit rate               : 9 345 kb/s
Channel(s)                     : 8 channels
Channel layout                 : L R C LFE Ls Rs Lb Rb
Sampling rate                  : 48.0 kHz
Frame rate                     : 1 200.000 FPS (40 SPF)
Bit depth                      : 24 bits
Compression mode               : Lossless
Stream size                    : 401 MiB (13%)
Language                       : English
Default                        : Yes
Forced                         : No
Original source medium         : Blu-ray
Number of dynamic objects      : 15
Bed channel count              : 1 channel
Bed channel configuration      : LFE

Audio #2
ID                             : 3
ID in the original source medi : 4353 (0x1101)
Format                         : DTS XLL
Format/Info                    : Digital Theater Systems
Commercial name                : DTS-HD Master Audio
Codec ID                       : A_DTS
Duration                       : 9 min 50 s
Bit rate mode                  : Variable / Constant
Bit rate                       : 5 169 kb/s / 768 kb/s
Channel(s)                     : 6 channels
Channel layout                 : C L R Ls Rs LFE
Sampling rate                  : 96.0 kHz / 48.0 kHz
Frame rate                     : 93.750 FPS (1024 SPF) / 93.750 FPS (512 SPF)
Bit depth                      : 24 bits
Compression mode               : Lossless / Lossy
Delay relative to video        : 3 ms
Stream size                    : 364 MiB (12%)
Language                       : English
Default                        : No
Forced                         : No
Original source medium         : Blu-ray

Audio #3
ID                             : 4
ID in the original source medi : 4354 (0x1102)
Format                         : PCM
Format settings                : Little / Signed
Codec ID                       : A_PCM/INT/LIT
Duration                       : 9 min 50 s
Bit rate mode                  : Constant
Bit rate                       : 4 608 kb/s
Channel(s)                     : 2 channels
Sampling rate                  : 96.0 kHz
Frame rate                     : 30.000 FPS (3200 SPF)
Bit depth                      : 24 bits
Delay relative to video        : 17 ms
Stream size                    : 324 MiB (11%)
Language                       : English
Default                        : No
Forced                         : No
Original source medium         : Blu-ray
</pre>
</div></div>
</div><br>
<div class="bbCodeBlock bbCodeVfcHH HiddenContent">
<div class="attribution type">Hidden Content:</div>
<blockquote>You must reply before you can see the hidden data contained here.</blockquote>
</div>
<div class="messageTextEndMarker">&nbsp;</div>
</blockquote>
</article>]]></description>
                <author><![CDATA[ADHDerby]]></author>
                </item>

                </channel></rss>